<svg width="100" height="117" viewBox="0 0 100 117" fill="none" xmlns="http://www.w3.org/2000/svg">
<rect x="37.2935" y="37.6593" width="41.1277" height="40.3958" fill="white"/>
<path fill-rule="evenodd" clip-rule="evenodd" d="M58.0689 0L58.0689 13.9365C69.8379 13.9365 80.531 18.5434 88.4432 26.0521L98.3004 16.1949C87.864 6.16535 73.6864 0 58.0689 0ZM56.9075 13.9515V0.0113823C42.0432 0.302979 28.5479 6.17982 18.4337 15.6299L28.2958 25.492C35.8788 18.5578 45.8909 14.2361 56.9075 13.9515ZM56.9075 102.186V116.126C25.373 115.508 0 89.7514 0 58.0689L13.9365 58.0689C13.9365 69.8379 18.5434 80.531 26.0521 88.4432L16.5995 97.8958L17.4207 98.717L26.8626 89.2751C34.5945 97.007 45.182 101.883 56.9075 102.186ZM58.0689 116.138L58.0689 102.201C70.551 102.201 81.8229 97.0191 89.8505 88.6891L99.5425 98.3811L99.8413 98.0823L99.9999 98.2409C89.4303 109.27 74.5515 116.138 58.0689 116.138ZM13.9515 56.9075C14.262 44.8885 19.3777 34.0651 27.4487 26.2873L17.5928 16.4314C6.99908 26.7314 0.322673 41.0394 0.0113824 56.9075H13.9515Z" fill="white"/>
</svg>
